<svg width="21" height="21" viewBox="0 0 21 21" fill="none" xmlns="http://www.w3.org/2000/svg">
<g clip-path="url(#clip0_11_2076)">
<path fill-rule="evenodd" clip-rule="evenodd" d="M7.83241 -0.000732422C6.72684 0.00010346 5.83209 0.917902 5.8329 2.04885C5.83209 3.1798 6.72766 4.0976 7.83323 4.09843H9.83356V2.04969C9.83437 0.918738 8.9388 0.000939342 7.83241 -0.000732422C7.83323 -0.000732422 7.83323 -0.000732422 7.83241 -0.000732422V-0.000732422ZM7.83241 5.46593H2.49984C1.39427 5.46677 0.498697 6.38457 0.499514 7.51552C0.49788 8.64646 1.39345 9.56426 2.49902 9.56593H7.83241C8.93799 9.5651 9.83356 8.6473 9.83274 7.51635C9.83356 6.38457 8.93799 5.46677 7.83241 5.46593Z" fill="#36C5F0"/>
<path fill-rule="evenodd" clip-rule="evenodd" d="M20.4998 7.51625C20.5006 6.3853 19.605 5.4675 18.4994 5.46667C17.3938 5.4675 16.4983 6.3853 16.4991 7.51625V9.56667H18.4994C19.605 9.56583 20.5006 8.64803 20.4998 7.51625ZM15.1664 7.51625V2.04958C15.1672 0.91947 14.2724 0.00167176 13.1668 0C12.0613 0.000835882 11.1657 0.918634 11.1665 2.04958V7.51625C11.1649 8.6472 12.0604 9.56499 13.166 9.56667C14.2716 9.56583 15.1672 8.64803 15.1664 7.51625Z" fill="#2EB67D"/>
<path fill-rule="evenodd" clip-rule="evenodd" d="M13.1661 20.5001C14.2717 20.4993 15.1672 19.5815 15.1664 18.4505C15.1672 17.3196 14.2717 16.4018 13.1661 16.401H11.1658V18.4505C11.165 19.5807 12.0605 20.4984 13.1661 20.5001ZM13.1661 15.0326H18.4995C19.6051 15.0318 20.5006 14.114 20.4998 12.983C20.5014 11.8521 19.6059 10.9343 18.5003 10.9326H13.1669C12.0613 10.9335 11.1658 11.8513 11.1666 12.9822C11.1658 14.114 12.0605 15.0318 13.1661 15.0326Z" fill="#ECB22E"/>
<path fill-rule="evenodd" clip-rule="evenodd" d="M0.499756 12.9829C0.498939 14.1139 1.39451 15.0317 2.50008 15.0325C3.60566 15.0317 4.50123 14.1139 4.50041 12.9829V10.9333H2.50008C1.39451 10.9342 0.498939 11.852 0.499756 12.9829ZM5.83314 12.9829V18.4496C5.83151 19.5806 6.72708 20.4984 7.83265 20.5C8.93823 20.4992 9.8338 19.5814 9.83298 18.4504V12.9846C9.83461 11.8537 8.93904 10.9359 7.83347 10.9342C6.72708 10.9342 5.83233 11.852 5.83314 12.9829C5.83314 12.9838 5.83314 12.9829 5.83314 12.9829Z" fill="#E01E5A"/>
</g>
<defs>
<clipPath id="clip0_11_2076">
<rect width="20" height="20.5" fill="white" transform="translate(0.499756 -0.000732422)"/>
</clipPath>
</defs>
</svg>
