<svg width="21" height="21" viewBox="0 0 21 21" fill="none" xmlns="http://www.w3.org/2000/svg">
<g clip-path="url(#clip0_11_2016)">
<path d="M20.2591 9.91909L11.3963 0.98997L10.5376 0.124756L3.86588 6.84638L0.815078 9.91909C0.662692 10.0734 0.577148 10.2822 0.577148 10.4999C0.577148 10.7176 0.662692 10.9264 0.815078 11.0807L6.91025 17.2215L10.5376 20.8751L17.2083 14.1535L17.3122 14.0497L20.2591 11.0854C20.3355 11.009 20.3961 10.9181 20.4375 10.8181C20.4788 10.718 20.5001 10.6106 20.5001 10.5022C20.5001 10.3938 20.4788 10.2865 20.4375 10.1864C20.3961 10.0863 20.3355 9.99547 20.2591 9.91909ZM10.5376 13.568L7.49227 10.4999L10.5376 7.43183L13.5819 10.4999L10.5376 13.568Z" fill="#2684FF"/>
<path d="M10.5373 7.43197C9.57954 6.46728 9.03964 5.15995 9.0355 3.79552C9.03137 2.4311 9.56334 1.12046 10.5152 0.149902L3.85181 6.86041L7.4782 10.5139L10.5373 7.43197Z" fill="url(#paint0_linear_11_2016)"/>
<path d="M13.5897 10.4917L10.5371 13.5681C11.4985 14.5369 12.0385 15.8508 12.0385 17.2207C12.0385 18.5907 11.4985 19.9045 10.5371 20.8733L17.2189 14.1452L13.5897 10.4917Z" fill="url(#paint1_linear_11_2016)"/>
</g>
<defs>
<linearGradient id="paint0_linear_11_2016" x1="9.99203" y1="4.32776" x2="5.70777" y2="8.57927" gradientUnits="userSpaceOnUse">
<stop offset="0.18" stop-color="#0052CC"/>
<stop offset="1" stop-color="#2684FF"/>
</linearGradient>
<linearGradient id="paint1_linear_11_2016" x1="776.603" y1="900.926" x2="1212.74" y2="1181.57" gradientUnits="userSpaceOnUse">
<stop offset="0.18" stop-color="#0052CC"/>
<stop offset="1" stop-color="#2684FF"/>
</linearGradient>
<clipPath id="clip0_11_2016">
<rect width="20" height="21" fill="white" transform="translate(0.499756 -0.000732422)"/>
</clipPath>
</defs>
</svg>
