<svg width="21" height="20" viewBox="0 0 21 20" fill="none" xmlns="http://www.w3.org/2000/svg">
<path d="M6.42651 9.23904C6.33474 9.11922 6.19924 9.04064 6.04967 9.02049C5.9001 9.00034 5.74864 9.04026 5.62843 9.13152C5.55771 9.18729 5.50066 9.25848 5.46165 9.33966L0.561511 19.1427C0.492109 19.2816 0.480709 19.4424 0.529818 19.5897C0.578927 19.7371 0.684526 19.8589 0.823403 19.9284C0.90458 19.9694 0.994325 19.9907 1.0853 19.9904H7.9124C8.02175 19.9932 8.12954 19.964 8.22257 19.9065C8.31561 19.849 8.38984 19.7655 8.43619 19.6665C9.90967 16.623 9.01648 11.9958 6.42651 9.23904Z" fill="url(#paint0_linear_11_2105)"/>
<path d="M10.0885 0.318096C8.86692 2.19786 8.15501 4.36289 8.02258 6.60078C7.89016 8.83867 8.34177 11.0726 9.33312 13.0833L12.6247 19.6664C12.6733 19.7637 12.7481 19.8455 12.8406 19.9027C12.9331 19.9599 13.0397 19.9903 13.1485 19.9903H19.9742C20.0512 19.9905 20.1274 19.9755 20.1986 19.9461C20.2697 19.9167 20.3344 19.8736 20.3888 19.8191C20.4433 19.7647 20.4864 19.7001 20.5158 19.6289C20.5452 19.5577 20.5602 19.4815 20.56 19.4045C20.5601 19.3137 20.5393 19.2241 20.4994 19.1426L11.085 0.31534C11.0404 0.220998 10.9698 0.141281 10.8816 0.0854577C10.7934 0.0296347 10.6911 0 10.5868 0C10.4824 0 10.3801 0.0296347 10.2919 0.0854577C10.2037 0.141281 10.1332 0.220998 10.0885 0.31534V0.318096Z" fill="#2684FF"/>
<defs>
<linearGradient id="paint0_linear_11_2105" x1="9.124" y1="10.7373" x2="3.94957" y2="19.6995" gradientUnits="userSpaceOnUse">
<stop stop-color="#0052CC"/>
<stop offset="0.92" stop-color="#2684FF"/>
</linearGradient>
</defs>
</svg>
