<svg
   width="21"
   height="20"
   viewBox="0 0 21 20"
   fill="none"
   xmlns="http://www.w3.org/2000/svg"
>
   <g clip-path="url(#clip0_11_2124)">
      <path
         d="M4.04142 0.5H16.9581C18.9164 0.5 20.4998 2.08333 20.4998 4.04167V16.4583C20.4998 18.4167 18.9164 20 16.9581 20H4.04142C2.08309 20 0.499756 18.4167 0.499756 16.4583V4.04167C0.499756 2.08333 2.08309 0.5 4.04142 0.5Z"
         fill="#470137"
      />
      <path
         d="M11.0164 5.625L8.51636 9.75L11.183 14.125C11.1997 14.1583 11.208 14.1917 11.1997 14.225C11.1914 14.2583 11.158 14.2333 11.108 14.2417H9.19969C9.06636 14.2417 8.97469 14.2333 8.91636 14.15C8.74136 13.8 8.55802 13.4583 8.38302 13.1083C8.20802 12.7667 8.01636 12.4167 7.81636 12.0583C7.61636 11.7 7.41636 11.3417 7.21636 10.975H7.19969C7.02469 11.3333 6.83302 11.6917 6.64136 12.05C6.44969 12.4083 6.25802 12.7667 6.07469 13.1167C5.88302 13.4667 5.69136 13.825 5.49969 14.1667C5.46636 14.25 5.39969 14.2583 5.30802 14.2583H3.47469C3.44136 14.2583 3.41636 14.275 3.41636 14.2333C3.40802 14.2 3.41636 14.1667 3.43302 14.1417L6.02469 9.89167L3.49969 5.61667C3.47469 5.58333 3.46636 5.55 3.48302 5.53333C3.49969 5.50833 3.53302 5.5 3.56636 5.5H5.45802C5.49969 5.5 5.54136 5.50833 5.57469 5.51667C5.60802 5.53333 5.63302 5.55833 5.65802 5.59167C5.81636 5.95 5.99969 6.30833 6.19136 6.66667C6.39136 7.025 6.58302 7.375 6.79136 7.725C6.99136 8.075 7.17469 8.425 7.34969 8.78333H7.36636C7.54136 8.41667 7.72469 8.05833 7.90802 7.70833C8.09136 7.35833 8.28302 7.00833 8.47469 6.65833C8.66636 6.30833 8.84969 5.95 9.03302 5.60833C9.04136 5.575 9.05802 5.54167 9.08302 5.525C9.11636 5.50833 9.14969 5.5 9.19136 5.50833H10.9497C10.9914 5.5 11.033 5.525 11.0414 5.56667C11.0497 5.575 11.033 5.60833 11.0164 5.625Z"
         fill="#FF61F6"
      />
      <path
         d="M14.8663 14.4166C14.2496 14.425 13.633 14.3 13.0746 14.0416C12.5496 13.8 12.1163 13.4 11.8163 12.9083C11.508 12.4 11.358 11.7666 11.358 11.0083C11.3496 10.3916 11.508 9.78331 11.8163 9.24998C12.133 8.70831 12.5913 8.25831 13.1413 7.95831C13.7246 7.63331 14.4246 7.47498 15.2496 7.47498C15.2913 7.47498 15.3496 7.47498 15.4246 7.48331C15.4996 7.49164 15.583 7.49164 15.683 7.49998V4.86664C15.683 4.80831 15.708 4.77498 15.7663 4.77498H17.458C17.4996 4.76664 17.533 4.79998 17.5413 4.83331C17.5413 4.84164 17.5413 4.84998 17.5413 4.84998V12.7833C17.5413 12.9333 17.5496 13.1 17.558 13.2833C17.5746 13.4583 17.583 13.625 17.5913 13.7666C17.5913 13.825 17.5663 13.875 17.508 13.9C17.0746 14.0833 16.6163 14.2166 16.1496 14.3C15.7246 14.375 15.2996 14.4166 14.8663 14.4166ZM15.683 12.75V9.08331C15.608 9.06664 15.533 9.04998 15.458 9.04164C15.3663 9.03331 15.2746 9.02498 15.183 9.02498C14.858 9.02498 14.533 9.09164 14.2413 9.24164C13.958 9.38331 13.7163 9.59164 13.533 9.85831C13.3496 10.125 13.258 10.4833 13.258 10.9166C13.2496 11.2083 13.2996 11.5 13.3996 11.775C13.483 12 13.608 12.2 13.7746 12.3666C13.933 12.5166 14.1246 12.6333 14.3413 12.7C14.5663 12.775 14.7996 12.8083 15.033 12.8083C15.158 12.8083 15.2746 12.8 15.383 12.7916C15.4913 12.8 15.583 12.7833 15.683 12.75Z"
         fill="#FF61F6"
      />
   </g>
   <defs>
      <clipPath id="clip0_11_2124">
         <rect
            width="20"
            height="19.5"
            fill="white"
            transform="translate(0.499756 0.5)"
         />
      </clipPath>
   </defs>
</svg>
